<svg xmlns="http://www.w3.org/2000/svg" viewBox="0 0 990.579 210">
  <defs>
    <linearGradient id="a" x1="336.562" y1="-.679" x2="336.562" y2="209.321" gradientTransform="matrix(-1 0 0 1 488.587 0)" gradientUnits="userSpaceOnUse">
      <stop offset="0" stop-color="#7c3aed"/>
      <stop offset="1" stop-color="#e53c98"/>
    </linearGradient>
  </defs>
  <path d="M412.178 52.016a5.058 5.058 0 0 1 2.207 6.619L408.8 69.961c-1.176 2.648-4.854 3.53-7.354 2.354-9.856-4.854-20.888-8.09-27.948-8.09-6.766 0-11.326 2.5-11.326 7.5 0 17.8 54.424 7.649 54.424 44.864 0 20.593-18.239 31.479-41.186 31.479a78.208 78.208 0 0 1-44.28-14.268c-1.912-1.471-2.06-3.824-.883-5.884l5.295-10.59a5.657 5.657 0 0 1 8.09-1.912c10.15 7.06 22.947 11.473 32.067 11.473 8.237 0 13.386-3.089 13.386-8.973 0-18.24-54.425-7.354-54.425-43.834 0-18.975 16.327-31.037 41.039-31.037a80.549 80.549 0 0 1 36.479 8.973Z"/>
  <rect x="428.244" y="38.042" width="25.448" height="109.144" rx="5.148"/>
  <path d="M545.907 110.118c0 2.8-2.207 4.266-5 4.266h-46.042c-2.942 0-4.56 1.912-3.089 4.56 3.236 6.472 9.12 10.149 16.916 10.149a25.929 25.929 0 0 0 16.033-5.589c1.471-1.03 4.266-1.177 5.59.147l7.207 6.913a4.653 4.653 0 0 1-.294 7.208c-7.943 6.619-18.387 10.3-30.742 10.3-25.889 0-42.069-16.181-42.069-40.3 0-24.565 16.768-40.746 41.333-40.746 26.624-.007 40.304 16.615 40.157 43.092Zm-51.483-9.418h22.064c3.383 0 5.148-1.618 4.266-4.707-1.619-7.06-7.208-11.326-14.71-11.326-7.207 0-12.65 4.413-15.3 11.326-1.027 2.799.591 4.707 3.68 4.707ZM632.341 110.118c0 2.8-2.206 4.266-5 4.266H581.3c-2.941 0-4.559 1.912-3.089 4.56 3.237 6.472 9.12 10.149 16.916 10.149a25.932 25.932 0 0 0 16.033-5.593c1.47-1.03 4.265-1.177 5.589.147l7.208 6.913a4.654 4.654 0 0 1-.294 7.208c-7.944 6.619-18.387 10.3-30.743 10.3-25.889 0-42.069-16.181-42.069-40.3 0-24.565 16.768-40.746 41.333-40.746 26.625-.003 40.304 16.619 40.157 43.096Zm-51.483-9.418h22.064c3.383 0 5.148-1.618 4.266-4.707-1.618-7.06-7.208-11.326-14.709-11.326-7.208 0-12.651 4.413-15.3 11.326-1.028 2.799.59 4.707 3.679 4.707ZM729.146 107.912c0 24.123-14.415 40.157-36.627 40.157-8.531 0-15.739-2.795-21.034-7.944-1.03-1.03-3.236-.294-3.236 1.03v29.419a5.212 5.212 0 0 1-5.148 5.148H647.95a5.212 5.212 0 0 1-5.149-5.148V73.05a5.212 5.212 0 0 1 5.149-5.15h15.15a5.212 5.212 0 0 1 5.148 5.148v.736c0 1.471 2.059 2.059 3.089 1.03a29.558 29.558 0 0 1 20.593-7.8c22.359.005 37.216 16.333 37.216 40.898Zm-25.594-.736c0-12.062-7.208-20.593-17.8-20.593-10.3 0-17.5 8.531-17.5 20.593 0 12.356 7.208 20.74 17.5 20.74 10.592 0 17.8-8.531 17.8-20.74ZM831.056 147.186H815.17a5.212 5.212 0 0 1-5.148-5.149v-29.712a5.212 5.212 0 0 0-5.148-5.149h-32.361a5.212 5.212 0 0 0-5.148 5.149v29.712a5.213 5.213 0 0 1-5.149 5.149H746.33a5.212 5.212 0 0 1-5.148-5.149V49.368a5.211 5.211 0 0 1 5.148-5.148h15.886a5.212 5.212 0 0 1 5.149 5.148v32.067a5.211 5.211 0 0 0 5.148 5.148h32.361a5.212 5.212 0 0 0 5.148-5.148V49.368a5.211 5.211 0 0 1 5.148-5.148h15.886a5.211 5.211 0 0 1 5.148 5.148v92.669a5.212 5.212 0 0 1-5.148 5.149ZM957.032 147.48l5.295 8.973c1.177 2.206 1.03 4.707-1.03 6.178a47.709 47.709 0 0 1-26.771 8.826c-13.238 0-24.565-7.5-31.478-20-.588-1.03-2.648-3.089-3.971-3.236-29.567-2.06-51.189-23.83-51.189-52.66 0-30.007 23.829-52.219 55.6-52.219 31.92 0 55.749 22.359 55.749 52.219a51.725 51.725 0 0 1-31.184 47.953c-1.471.588-2.206 2.206-1.177 3.383a15.09 15.09 0 0 0 10.591 4.854c3.825 0 9.12-2.06 14.268-5.443 1.765-1.034 4.414-.593 5.297 1.172Zm-53.248-21.034c15.886 0 28.536-13.386 28.536-30.743s-12.65-30.449-28.536-30.449-29.125 13.092-29.125 30.446 13.385 30.746 29.125 30.746Z"/>
  <g>
    <path d="M964.215 48.565h-4.977v-2.614h13.323v2.614h-4.952v13.574h-3.394V48.565zM974.265 45.951h3.419l4.75 9.728 4.751-9.728h3.394v16.188h-3.394V51.607l-3.77 7.742h-1.961l-3.796-7.742v10.532h-3.393V45.951z"/></g><g><path d="M138.07 111.849C111.336 95.811 0 100.737 0 59.271 0 3.093 185.539 0 185.539 0S122.6 25.138 122.6 56.655c0 20.857 26.055 31.1 43.38 41.5 26.735 16.038 138.07 11.112 138.07 52.578 0 56.174-185.539 59.267-185.539 59.267s62.939-25.138 62.939-56.655c0-20.857-26.05-31.102-43.38-41.496Z" style="opacity:.15;fill:url(#a)"/>
    <path d="M138.07 111.849c-26.734-16.038-89.276-18.015-89.276-52.578C48.794 12.445 185.539 0 185.539 0S122.6 25.138 122.6 56.655c0 20.857 26.055 31.1 43.38 41.5 26.735 16.038 89.276 18.015 89.276 52.578 0 46.826-136.745 59.271-136.745 59.271s62.939-25.138 62.939-56.655c0-20.861-26.05-31.106-43.38-41.5Z" style="opacity:.45;fill:url(#a)"/>
    <path d="M138.07 111.849c-26.735-16.038-56.747-26.524-56.747-52.578 0-35.3 90.794-56.463 104.216-59.271 0 0-52.086 25.138-52.086 56.655 0 20.857 15.2 31.1 32.527 41.5 26.735 16.038 56.747 26.524 56.747 52.578 0 35.3-90.794 56.463-104.216 59.271 0 0 52.086-25.138 52.086-56.655.003-20.861-15.197-31.106-32.527-41.5Z" style="fill:url(#a)"/>
  </g>

</svg>